<svg id="Layer_1" data-name="Layer 1" xmlns="http://www.w3.org/2000/svg" viewBox="0 0 763.36 411.36"><defs><style>.cls-1{fill-rule:evenodd;}</style></defs><title>ANALOGO</title><path class="cls-1" d="M337,92.71c-4.25,9.82-8.44,19.75-12.66,29.5-.16.38-.48.74-.43,1.19h35.24c-5.88-13.72-11.74-27.48-17.7-41.13C340,85.75,338.5,89.23,337,92.71Zm59.46,71.49H377.08c-3.81-8.2-7.44-16.58-11.3-24.72H317.17c-3.8,8.18-7.5,16.47-11.24,24.72H286.6c-.09-.33.16-.66.27-.92,4.49-10.05,8.94-20.28,13.31-30.48,4.5-10.5,9.15-21,13.74-31.46q10.29-23.57,20.63-47.15c2.31-5.3,4.62-10.57,6.9-15.87Q369,101.17,396.46,164.2Z"/><path class="cls-1" d="M102.72,123.4h35.35c-5.88-13.73-11.74-27.48-17.7-41.13C114.52,96,108.59,109.68,102.72,123.4Zm72.66,40.8H156c-3.81-8.2-7.43-16.58-11.29-24.72H96.09c-3.81,8.18-7.5,16.47-11.24,24.72H65.52c-.1-.33.14-.64.27-.92,4.49-10.07,8.86-20.3,13.3-30.48q6.85-15.71,13.74-31.46,10.31-23.57,20.64-47.15c2.31-5.3,4.62-10.57,6.9-15.87Q148,101.17,175.38,164.2Z"/><path class="cls-1" d="M253.2,109.55V38.32h19c.06,0,.1,0,.11.06v123.7a11.4,11.4,0,0,1,0,2c-.13.3-.32-.2-.44-.33-21.56-24.17-43.3-48.78-64.78-72.8v73.18c0,.06,0,.1-.06.11H188V38.43c0-.09.05-.11.05,0C209.8,62,231.48,86,253.2,109.55Z"/><path d="M595.67,92.13A60.93,60.93,0,0,0,582.19,62a63.82,63.82,0,0,0-25.07-18.6,65.45,65.45,0,0,0-17.33-4.52,70.47,70.47,0,0,0-20.26.74,61.61,61.61,0,0,0-16.22,5.54C489,52.3,477.89,63.7,471.88,79.23a62.31,62.31,0,0,0-3.8,28.41,59.68,59.68,0,0,0,8,24.75,63.28,63.28,0,0,0,21.41,22.18c9,5.64,19.51,9.55,33.8,10A61.23,61.23,0,0,0,550.32,162a4.37,4.37,0,0,0,.62-.2c0,.17-.13.42-.23.62s-.32.57-.47.84c-8.5,14.29-15,26.56-20.64,37.12-18.23,34.24-26.53,49.55-61,61.49-.1,0-.23.08-.33.1a1.43,1.43,0,0,1-.84.05c-1.13-.37-2.44-1.36-3.61-1.76a2,2,0,0,0-1.21.13,50.91,50.91,0,0,0-5,1.51c-2.18.81-4.35,1.6-6.68,2.37l-.2.07c-1,.35-2,.72-3.06,1l-.08.05-.05-.1c-.14-.84-.32-1.63-.52-2.44a94,94,0,0,0-22.55-43.55,97.44,97.44,0,0,0-18.54-15.85,93,93,0,0,0-37.34-14.29A84.16,84.16,0,0,0,352.53,188a103.54,103.54,0,0,0-29.23,5,94.1,94.1,0,0,0-41.15,27.45,97.37,97.37,0,0,0-13.82,20.6,89.64,89.64,0,0,0-8.5,25.89,101.18,101.18,0,0,0-.28,31.65,96.58,96.58,0,0,0,8.16,26.13,93.25,93.25,0,0,0,31.51,37.14C312.79,371.35,328.94,378,350.9,379c.07,0,.09,0,.12.05l4.89,0a95,95,0,0,0,38-8.83c21.29-10,36.69-25.69,46.75-47.1,5.07-10.71,8.24-22.68,8.58-37.86,0,0,0-.4.05-.92l-19.16,6.7-.57-1.68,20.7-7.24a7.15,7.15,0,0,1,1.18-.42c.43-.15.85-.27,1.27-.42l.27-.1c2.52-.92,5.12-1.83,7.74-2.7,1.06-.42,2.15-.76,3.24-1.11,1.88-.64,3.8-1.11,5.54-1.83.47-.2.42-.17.59-.77.07-.32.17-.66.27-1a14.86,14.86,0,0,1,.55-2.06,1.55,1.55,0,0,1,.59-.42c.12,0,.25-.07.34-.12,38.16-13.28,48-31.53,66.45-66.15,5.73-10.75,12.43-23.34,21.19-38,3.41-5.76,4.75-8.41,10.65-13.85a.14.14,0,0,1,.1-.07,1.37,1.37,0,0,1,.23-.2c.84-.69,1.65-1.44,2.44-2.23l0,0c1-1,2-2.07,3.07-3.09,1.85-1.83,3.71-3.68,5.34-5.56A64.28,64.28,0,0,0,590,128.78a58.08,58.08,0,0,0,5.44-16.44A67.35,67.35,0,0,0,595.67,92.13ZM353.91,296a12.51,12.51,0,1,1,12.56-12.46A12.5,12.5,0,0,1,353.91,296Zm70.5,27.48-10.29-21.24-19,6.65-10.51-30.07,2.35-.82,9.7,27.72,19-6.65,10.06,20.8,3.31-1.64,1.19,2.45Zm6.7-29.8.82,2.32L420.7,300l-1.09-2.25ZM573.56,119a43.77,43.77,0,0,1-21.86,23,45.53,45.53,0,0,1-37,1,43.38,43.38,0,0,1-13.65-8.78c-7.42-7.22-13.4-17-14-30.86a45.13,45.13,0,0,1,3.36-19.06,43.91,43.91,0,0,1,21.86-23,44.75,44.75,0,0,1,17.93-4.38,45.27,45.27,0,0,1,19.16,3.34A43.66,43.66,0,0,1,563.13,69a43.22,43.22,0,0,1,9.42,13,45.9,45.9,0,0,1,4.45,18A43.47,43.47,0,0,1,573.56,119Z"/><path class="cls-1" d="M697.87,43.92c-1.28,5.48-2.74,10.77-4,16.24a53.35,53.35,0,0,0-10.37-2.93,66.88,66.88,0,0,0-24.28.6c-10.61,2.42-18,8.62-23.19,16.68a50.56,50.56,0,0,0-7.33,19.23A48.65,48.65,0,0,0,630.8,117c5.74,16.53,17.14,27,36.93,29.5,4,.5,8.33-.21,12.92,0V121.93c-5.17-.12-10.59,0-15.85-.05v-17h32.69v48.45a17.16,17.16,0,0,1,0,3.21c-.16.65-1.63,1.57-2.34,2.06-6,4.25-14.77,5.75-25,5.55a83,83,0,0,1-15.8-1.74,50.58,50.58,0,0,1-13.14-4.35c-7.52-4-13.6-9.68-19-16-6.89-8.07-10.83-18.25-12.65-31.18a74.65,74.65,0,0,1,.54-24.17A58.76,58.76,0,0,1,621,62.55a75.63,75.63,0,0,1,8.2-9.34,47.13,47.13,0,0,1,10-7.5,64.91,64.91,0,0,1,27.91-7.33A67.92,67.92,0,0,1,697.87,43.92Z"/><path class="cls-1" d="M409.12,39h19.06V145.08h43.45c.08,6.24.08,12.87,0,19.12H409.06v-125C409.06,39.12,409.05,39,409.12,39Z"/></svg>